Coordinates
version=1
nRows=17
nColumns=36
inDegrees=yes

Units are S.I. units (second, meters, Newtons, ...)
If the header above contains a line with 'inDegrees', this indicates whether rotational values are in degrees (yes) or radians (no).

endheader
time	pelvis_tilt	pelvis_list	pelvis_rotation	pelvis_tx	pelvis_ty	pelvis_tz	hip_flexion_r	hip_adduction_r	hip_rotation_r	knee_angle_r	knee_angle_r_beta	ankle_angle_r	subtalar_angle_r	mtp_angle_r	hip_flexion_l	hip_adduction_l	hip_rotation_l	knee_angle_l	knee_angle_l_beta	ankle_angle_l	subtalar_angle_l	mtp_angle_l	lumbar_extension	lumbar_bending	lumbar_rotation	arm_flex_r	arm_add_r	arm_rot_r	elbow_flex_r	pro_sup_r	arm_flex_l	arm_add_l	arm_rot_l	elbow_flex_l	pro_sup_l
      1.95000000	     -5.82525639	      0.97862133	      3.52546123	     -0.18002839	      1.17331545	      0.10473428	      5.62578911	     -2.32910551	    -17.94677818	      0.13247578	      0.00231214	     12.18291436	     11.76812371	     -7.49999987	      4.21072935	      0.10112314	    -25.55779509	      0.11147750	      0.00194565	      9.72613685	     14.09595124	     -7.49999987	     -1.38182504	     -2.05055259	     -3.74459379	      6.10299314	    -13.18354443	     24.21809000	     17.51190525	     53.06743175	      6.42725846	    -17.85665985	     39.66752181	     19.84921797	     47.70689121
      1.96666670	     -6.28278913	      1.05277675	      3.72997240	     -0.18164046	      1.17176272	      0.10464168	      6.16339353	     -2.49776854	    -17.84365167	      0.12985786	      0.00226645	     12.17357474	     11.99222055	     -7.49999987	      4.77187741	      0.18141881	    -25.63988690	      0.11330848	      0.00197761	      9.37511967	     13.07682610	     -7.49999987	     -0.92502719	     -2.17236352	     -3.78725559	      6.02047061	    -13.17742250	     23.70943032	     17.68287304	     53.15655905	      6.56431777	    -17.98397086	     39.40894722	     19.75297273	     47.84216207
      1.98333330	     -6.36820958	      1.08950402	      3.92168152	     -0.18095730	      1.17357178	      0.10516683	      6.26547104	     -2.57647310	    -17.73446581	      0.12746038	      0.00222460	     12.08999757	     12.08748498	     -7.49999987	      4.95881422	      0.20775619	    -25.59430476	      0.11334553	      0.00197825	      8.99663157	     12.36450566	     -7.49999987	     -0.93096713	     -2.22398420	     -3.88692815	      6.17318087	    -13.19915581	     23.42755009	     17.71743166	     53.41842679	      6.68462904	    -18.08907868	     39.22682914	     19.71062910	     48.10905027
      2.00000000	     -6.39649793	      1.08471525	      4.09936581	     -0.18214534	      1.17044377	      0.10490386	      6.23880802	     -2.63658985	    -18.08487727	      0.12844628	      0.00224181	     11.96157693	     11.89744900	     -7.49999987	      5.03633235	      0.22483826	    -25.64432319	      0.11560681	      0.00201772	      8.77124188	     11.26472674	     -7.49999987	     -1.05292521	     -2.20757814	     -3.98358476	      6.00706930	    -13.09587216	     21.44537871	     18.19095235	     54.50076267	      6.66118148	    -18.06730444	     37.36864689	     20.00061833	     49.73927211
      2.01666670	     -6.56579018	      1.10760523	      4.14092278	     -0.18153113	      1.17196258	      0.10465221	      6.41253132	     -2.66538758	    -17.99479130	      0.12932331	      0.00225712	     11.77693086	     11.49146892	     -7.49999987	      5.32508693	      0.30171061	    -25.47106823	      0.11424283	      0.00199391	      8.34707129	     10.26964279	     -7.49999987	     -0.99469122	     -2.25676603	     -4.07779974	      6.17184733	    -13.03048783	     21.31032898	     18.06107753	     54.89003537	      6.67844611	    -18.08008751	     37.18699506	     19.84054848	     50.19414893
      2.03333330	     -6.54545131	      1.05902607	      4.16026450	     -0.17923516	      1.17476778	      0.10408060	      6.34121213	     -2.62179239	    -18.43317014	      0.13292083	      0.00231991	     11.79578429	     11.84045009	     -7.49999987	      5.38863206	      0.29160248	    -25.82378630	      0.11497909	      0.00200676	      8.49887011	     10.79300439	     -7.49999987	     -0.98222579	     -2.20386728	     -4.16463096	      6.37327924	    -13.21945970	     24.04381130	     17.88997943	     53.31088573	      6.90455168	    -18.19171999	     40.73513093	     19.53453994	     45.52218903
      2.05000000	     -6.60285527	      1.04465769	      4.14241886	     -0.17927855	      1.17355714	      0.10366877	      6.44760484	     -2.62461141	    -18.48154067	      0.13388119	      0.00233667	     11.75087821	     11.66723631	     -7.49999987	      5.48352808	      0.31464462	    -26.14301994	      0.11566132	      0.00201867	      8.38190636	     10.56882363	     -7.49999987	     -0.94208729	     -2.19500285	     -4.17378004	      6.25625613	    -13.13289138	     23.18052795	     18.15181556	     53.77502078	      6.72478138	    -18.07173380	     39.87350794	     19.62894500	     46.66135104
      2.06666670	     -6.79467986	      1.06658641	      4.08026984	     -0.17927866	      1.17490323	      0.10362564	      6.67949970	     -2.66253119	    -18.28433258	      0.13581228	      0.00237037	     11.57403368	     11.46182217	     -7.49999987	      5.75953259	      0.39235902	    -26.21967209	      0.11490670	      0.00200550	      8.27998670	     10.70531322	     -7.49999987	     -0.67936835	     -2.23872734	     -4.19141054	      6.26073821	    -12.98955762	     22.81736432	     18.01084373	     53.96211953	      6.53717918	    -17.87731785	     39.50584881	     19.45601556	     47.12883967
      2.08333330	     -6.75875497	      1.05388719	      3.95478674	     -0.17854909	      1.17348871	      0.10344561	      6.70192448	     -2.64172673	    -18.28185650	      0.13671375	      0.00238611	     11.76634217	     11.49808472	     -7.49999987	      5.89112900	      0.45003673	    -25.82913765	      0.11241440	      0.00196200	      8.46370661	     10.97501757	     -7.49999987	     -0.77646478	     -2.19574036	     -4.20873439	      6.30258351	    -12.93903418	     22.87535313	     18.15710327	     53.97345408	      6.41890360	    -17.75067361	     39.57257805	     19.53585065	     47.12309430
      2.10000000	     -6.62986431	      1.00893353	      3.89889737	     -0.17865673	      1.17364854	      0.10294036	      6.56454740	     -2.57922012	    -18.63969100	      0.13796969	      0.00240803	     12.17369570	     11.97812778	     -7.49999987	      5.89602109	      0.46741722	    -25.92433100	      0.11171897	      0.00194986	      9.18088981	     12.61123211	     -7.49999987	     -0.94656433	     -2.10423421	     -4.41388984	      6.48018448	    -12.95045533	     23.54347658	     18.35021719	     54.23055034	      6.24844968	    -17.60706179	     39.85271902	     19.55150068	     47.17377155
      2.11666670	     -6.65874112	      0.91770951	      3.72931624	     -0.17872381	      1.17411890	      0.10262586	      6.60930706	     -2.49281579	    -18.48983766	      0.13850944	      0.00241745	     12.41231078	     11.80725336	     -7.49999987	      6.06256258	      0.46649813	    -25.24688334	      0.10881724	      0.00189922	      9.38250624	     12.78785944	     -7.49999987	     -0.93364333	     -1.95605394	     -4.46628649	      6.62446773	    -12.79620903	     23.21360398	     18.06647546	     54.31108483	      6.11461754	    -17.22878409	     39.49562966	     19.28810639	     47.47539892
      2.13333330	     -6.33296877	      0.85183386	      3.56708230	     -0.17743037	      1.17508936	      0.10254098	      6.23088344	     -2.39112924	    -18.95501823	      0.13986221	      0.00244106	     12.72104905	     12.25682847	     -7.49999987	      5.70202723	      0.41953924	    -25.58908379	      0.11019475	      0.00192326	     10.07182168	     14.53861219	     -7.49999987	     -1.37742902	     -1.85592790	     -4.50842596	      6.65924385	    -12.83470822	     23.85356772	     18.39255937	     54.60277998	      5.96974583	    -17.07176200	     39.56799011	     19.58876911	     47.77766637
      2.15000000	     -6.39967133	      0.79122326	      3.41128816	     -0.17726725	      1.17363491	      0.10297868	      6.24029543	     -2.29183276	    -18.59754677	      0.14129962	      0.00246614	     12.66680549	     11.85828188	     -7.49999987	      5.70446122	      0.38357733	    -25.33166710	      0.11044356	      0.00192760	     10.26158988	     15.01635637	     -7.49999987	     -1.22378018	     -1.81810873	     -4.51562291	      6.70908724	    -12.59386642	     23.49885108	     17.92513982	     54.70623991	      5.80892101	    -16.69051091	     39.04028456	     19.25640563	     48.26022395
      2.16666670	     -6.20899727	      0.76470778	      3.34959805	     -0.17800717	      1.17224681	      0.10263862	      5.98683708	     -2.24762028	    -18.63004407	      0.14149977	      0.00246964	     12.76645771	     12.03998271	     -7.49999987	      5.45305687	      0.36571581	    -25.31850379	      0.11117305	      0.00194034	     10.66881625	     15.69112093	     -7.49999987	     -1.40496550	     -1.80167657	     -4.57068387	      6.96999089	    -12.81789676	     27.24773878	     17.77847213	     51.23638405	      5.97362839	    -16.67809169	     42.47458508	     19.23751750	     44.02128515
      2.18333330	     -6.23699497	      0.78401529	      3.32513497	     -0.17978310	      1.17142196	      0.10265272	      5.95295776	     -2.24366485	    -18.53648734	      0.14319594	      0.00249924	     12.86332938	     11.97154934	     -7.49999987	      5.42052968	      0.38942571	    -25.04785039	      0.11247145	      0.00196300	     10.88861206	     15.84443253	     -7.49999987	     -1.42917536	     -1.86041412	     -4.62053608	      6.96659797	    -12.67742446	     26.73897133	     17.69061614	     51.62572489	      5.90641311	    -16.45090839	     42.04475767	     19.18639408	     44.89648739
      2.20000000	     -6.07536466	      0.80987490	      3.35025882	     -0.18330254	      1.16943656	      0.10395120	      5.79519780	     -2.24810964	    -18.54031222	      0.14226574	      0.00248301	     12.92206841	     11.60422372	     -7.49999987	      5.26447856	      0.40320818	    -24.97051115	      0.11319819	      0.00197568	     11.09512869	     15.79880669	     -7.49999987	     -1.84186266	     -1.90383119	     -4.57074948	      7.08695228	    -12.63188554	     26.92255349	     17.97941605	     52.04925772	      6.21845050	    -16.32774565	     42.19772149	     19.37483672	     45.68217892
      2.21666670	     -6.22885419	      0.87606995	      3.45488634	     -0.18294964	      1.17322740	      0.10339364	      6.00212107	     -2.32983852	    -18.61591588	      0.14148163	      0.00246932	     12.82699110	     11.79400252	     -7.49999987	      5.44514342	      0.47320701	    -24.72741061	      0.11253540	      0.00196411	     10.86850142	     15.84426377	     -7.49999987	     -1.78759700	     -2.03725424	     -4.51717640	      7.08813959	    -12.54895079	     27.13991214	     17.96003870	     52.48063973	      6.34104170	    -16.17995595	     42.44094906	     19.40944901	     46.58971879
